<svg width="1440" height="1024" viewBox="0 0 1440 1024" fill="none" xmlns="http://www.w3.org/2000/svg">
<line x1="-167.531" y1="602.14" x2="1344.05" y2="602.14" stroke="#5776F5" stroke-opacity="0.03" stroke-width="1.2607"/>
<line x1="-167.531" y1="924.878" x2="1344.05" y2="924.878" stroke="#5776F5" stroke-opacity="0.03" stroke-width="1.2607"/>
<line x1="-167.531" y1="279.402" x2="1344.05" y2="279.402" stroke="#5776F5" stroke-opacity="0.03" stroke-width="1.2607"/>
<line x1="-167.531" y1="440.77" x2="1344.05" y2="440.77" stroke="#5776F5" stroke-opacity="0.03" stroke-width="1.2607"/>
<line x1="-167.531" y1="763.508" x2="1344.05" y2="763.508" stroke="#5776F5" stroke-opacity="0.03" stroke-width="1.2607"/>
<line x1="-167.531" y1="118.032" x2="1344.05" y2="118.032" stroke="#5776F5" stroke-opacity="0.03" stroke-width="1.2607"/>
<line x1="-167.531" y1="521.455" x2="1344.05" y2="521.455" stroke="#5776F5" stroke-opacity="0.03" stroke-width="1.2607"/>
<line x1="-167.531" y1="844.193" x2="1344.05" y2="844.193" stroke="#5776F5" stroke-opacity="0.03" stroke-width="1.2607"/>
<line x1="-167.531" y1="198.717" x2="1344.05" y2="198.717" stroke="#5776F5" stroke-opacity="0.03" stroke-width="1.2607"/>
<line x1="-167.531" y1="1005.56" x2="1344.05" y2="1005.56" stroke="#5776F5" stroke-opacity="0.03" stroke-width="1.2607"/>
<line x1="-167.531" y1="360.085" x2="1344.05" y2="360.085" stroke="#5776F5" stroke-opacity="0.03" stroke-width="1.2607"/>
<line x1="-167.531" y1="682.825" x2="1344.05" y2="682.825" stroke="#5776F5" stroke-opacity="0.03" stroke-width="1.2607"/>
<line x1="-167.531" y1="37.3466" x2="1344.05" y2="37.3466" stroke="#5776F5" stroke-opacity="0.03" stroke-width="1.2607"/>
<line x1="525.225" y1="-71.7029" x2="525.225" y2="1095.7" stroke="#5776F5" stroke-opacity="0.03" stroke-width="1.2607"/>
<line x1="202.484" y1="-71.7031" x2="202.484" y2="1095.7" stroke="#5776F5" stroke-opacity="0.03" stroke-width="1.2607"/>
<line x1="847.961" y1="-71.7029" x2="847.961" y2="1095.7" stroke="#5776F5" stroke-opacity="0.03" stroke-width="1.2607"/>
<line x1="1170.7" y1="-71.7029" x2="1170.7" y2="1095.7" stroke="#5776F5" stroke-opacity="0.03" stroke-width="1.2607"/>
<line x1="41.1142" y1="-71.7029" x2="41.1142" y2="1095.7" stroke="#5776F5" stroke-opacity="0.03" stroke-width="1.2607"/>
<line x1="686.59" y1="-71.7029" x2="686.59" y2="1095.7" stroke="#5776F5" stroke-opacity="0.03" stroke-width="1.2607"/>
<line x1="363.855" y1="-71.7029" x2="363.855" y2="1095.7" stroke="#5776F5" stroke-opacity="0.03" stroke-width="1.2607"/>
<line x1="1009.33" y1="-71.7031" x2="1009.33" y2="1095.7" stroke="#5776F5" stroke-opacity="0.03" stroke-width="1.2607"/>
<line x1="1332.07" y1="-71.7029" x2="1332.07" y2="1095.7" stroke="#5776F5" stroke-opacity="0.03" stroke-width="1.2607"/>
<line x1="605.908" y1="-71.7031" x2="605.908" y2="1095.7" stroke="#5776F5" stroke-opacity="0.03" stroke-width="1.2607"/>
<line x1="283.167" y1="-71.7029" x2="283.167" y2="1095.7" stroke="#5776F5" stroke-opacity="0.03" stroke-width="1.2607"/>
<line x1="928.648" y1="-71.7029" x2="928.648" y2="1095.7" stroke="#5776F5" stroke-opacity="0.03" stroke-width="1.2607"/>
<line x1="1251.38" y1="-71.7029" x2="1251.38" y2="1095.7" stroke="#5776F5" stroke-opacity="0.03" stroke-width="1.2607"/>
<line x1="121.802" y1="-71.7029" x2="121.802" y2="1095.7" stroke="#5776F5" stroke-opacity="0.03" stroke-width="1.2607"/>
<line x1="767.278" y1="-71.7029" x2="767.278" y2="1095.7" stroke="#5776F5" stroke-opacity="0.03" stroke-width="1.2607"/>
<line x1="444.538" y1="-71.7029" x2="444.537" y2="1095.7" stroke="#5776F5" stroke-opacity="0.03" stroke-width="1.2607"/>
<line x1="1090.01" y1="-71.7029" x2="1090.01" y2="1095.7" stroke="#5776F5" stroke-opacity="0.03" stroke-width="1.2607"/>
<line x1="1412.75" y1="-71.7031" x2="1412.75" y2="1095.7" stroke="#5776F5" stroke-opacity="0.03" stroke-width="1.2607"/>
<path d="M20.3356 463.375C-32.3577 399.56 38.7561 358.823 102.315 356.757C138.718 354.032 143.556 309.654 188.664 306.303C233.772 302.953 207.021 367.996 276.585 364.084C346.149 360.172 362.596 474.663 311.197 499.08C259.798 523.497 281.71 534.183 247.276 596.489C212.842 658.795 101.074 643.699 97.1692 576.659C93.2642 509.618 77.377 532.455 20.3356 463.375Z" stroke="#5776F5" stroke-opacity="0.04" stroke-width="3"/>
<path d="M157.456 470.005C152.032 464.108 157.882 448.059 168.751 448.924C178.705 449.716 185.527 443.122 191.779 442.662C208.238 441.453 204.245 446.501 213.304 449.761C224.328 453.728 236.699 471.502 218.989 479.431C204.423 485.953 211.949 491.076 202.446 499.094C192.942 507.112 178.184 507.315 171.894 493.267C169.532 487.992 166.488 479.826 157.456 470.005Z" stroke="#5776F5" stroke-opacity="0.04" stroke-width="3"/>
<path d="M32.6413 463.624C-15.7548 405.075 49.426 366.582 108.195 364.783C142.193 362.377 147.212 321.434 188.787 318.346C231.291 315.191 206.609 374.78 270.673 371.52C334.915 368.324 350.991 474.023 302.655 496.941C254.605 519.731 275.208 529.911 243.041 587.282C210.873 644.653 107.924 630.948 103.803 568.725C100.038 507.299 85.3183 527.317 32.6413 463.624Z" stroke="#5776F5" stroke-opacity="0.04" stroke-width="3"/>
<path d="M44.9471 463.874C0.848283 410.59 60.0959 374.341 114.075 372.809C145.669 370.723 150.867 333.214 188.911 330.39C228.81 327.429 206.197 381.564 264.76 378.956C323.681 376.476 339.386 473.382 294.113 494.802C249.411 515.965 268.707 525.639 238.805 578.075C208.904 630.511 114.775 618.196 110.436 560.791C106.812 504.98 93.2597 522.18 44.9471 463.874Z" stroke="#5776F5" stroke-opacity="0.04" stroke-width="3"/>
<path d="M57.2531 464.124C17.4515 416.106 70.7661 382.101 119.955 380.835C149.145 379.069 154.524 344.995 189.034 342.433C226.329 339.667 205.785 388.348 258.848 386.392C312.446 384.629 327.781 472.742 285.571 492.663C244.217 512.199 262.205 521.368 234.57 568.868C206.936 616.369 121.625 605.445 117.07 552.857C113.586 502.661 101.201 517.043 57.2531 464.124Z" stroke="#5776F5" stroke-opacity="0.04" stroke-width="3"/>
<path d="M69.5593 464.375C34.055 421.621 81.4365 389.861 125.836 388.861C152.62 387.415 158.18 356.776 189.158 354.477C223.849 351.905 205.373 395.132 252.936 393.828C301.213 392.782 316.177 472.102 277.029 490.524C239.024 508.434 255.704 517.097 230.336 559.662C204.967 602.227 128.476 592.694 123.704 544.923C120.36 500.343 109.143 511.906 69.5593 464.375Z" stroke="#5776F5" stroke-opacity="0.04" stroke-width="3"/>
<path d="M81.9745 464.868C50.7675 427.38 92.2158 397.864 131.825 397.131C156.205 396.004 161.945 368.801 189.391 366.764C221.477 364.387 205.071 402.16 247.133 401.508C290.088 401.177 304.682 471.706 268.596 488.629C233.939 504.911 249.312 513.069 226.21 550.698C203.108 588.328 135.436 580.186 130.447 537.233C127.243 498.268 117.194 507.013 81.9745 464.868Z" stroke="#5776F5" stroke-opacity="0.04" stroke-width="3"/>
<path d="M94.5186 465.649C67.6089 433.426 103.124 406.155 137.943 405.688C159.919 404.881 165.839 381.112 189.753 379.339C219.234 377.156 204.897 409.475 241.459 409.475C279.092 409.861 293.315 471.597 260.292 487.02C228.984 501.676 243.049 509.328 222.213 542.022C201.378 574.717 142.524 567.966 137.318 529.83C134.255 496.48 125.373 502.406 94.5186 465.649Z" stroke="#5776F5" stroke-opacity="0.04" stroke-width="3"/>
<path d="M107.07 466.446C84.4576 439.488 114.04 414.461 144.069 414.261C163.64 413.774 169.741 393.44 190.122 391.929C216.999 389.941 204.731 416.806 235.792 417.458C268.103 418.56 281.956 471.503 251.996 485.428C224.036 498.457 236.793 505.603 218.224 533.362C199.655 561.122 149.62 555.761 144.198 522.443C141.274 494.708 133.561 497.816 107.07 466.446Z" stroke="#5776F5" stroke-opacity="0.04" stroke-width="3"/>
<path d="M119.632 467.266C101.317 445.573 124.966 422.79 150.205 422.856C167.372 422.689 173.653 405.79 190.502 404.542C214.775 402.749 204.575 424.16 230.136 425.464C257.125 427.282 270.608 471.433 243.71 483.859C219.099 495.261 230.548 501.901 214.245 524.725C197.942 547.549 156.727 543.579 151.088 515.079C148.305 492.959 141.758 493.248 119.632 467.266Z" stroke="#5776F5" stroke-opacity="0.04" stroke-width="3"/>
<path d="M132.211 468.119C118.193 451.692 135.909 431.153 156.358 431.486C171.12 431.638 177.581 418.174 190.898 417.189C212.566 415.59 204.435 431.547 224.496 433.503C246.163 436.037 259.275 471.396 235.44 482.323C214.177 492.099 224.319 498.233 210.282 516.122C196.246 534.01 163.85 531.431 157.993 507.748C155.351 491.243 149.972 488.715 132.211 468.119Z" stroke="#5776F5" stroke-opacity="0.04" stroke-width="3"/>
<path d="M144.813 469.023C135.093 457.861 146.875 439.567 162.535 440.166C174.893 440.638 181.534 430.609 191.319 429.887C210.382 428.483 204.32 438.985 218.88 441.593C235.226 444.844 247.967 471.41 227.195 480.838C209.28 488.987 218.114 494.615 206.344 507.569C194.574 520.522 170.997 519.334 164.924 500.469C162.421 489.578 158.21 484.231 144.813 469.023Z" stroke="#5776F5" stroke-opacity="0.04" stroke-width="3"/>
<circle cx="1248" cy="186" r="4" transform="rotate(90 1248 186)" fill="#5776F5" fill-opacity="0.07"/>
<circle cx="1237.7" cy="214.87" r="4" transform="rotate(135 1237.7 214.87)" fill="#5776F5" fill-opacity="0.07"/>
<circle cx="1210" cy="228" r="4" transform="rotate(180 1210 228)" fill="#5776F5" fill-opacity="0.07"/>
<circle cx="1181.13" cy="217.699" r="4" transform="rotate(-135 1181.13 217.699)" fill="#5776F5" fill-opacity="0.07"/>
<circle cx="1168" cy="190" r="4" transform="rotate(-90 1168 190)" fill="#5776F5" fill-opacity="0.07"/>
<circle cx="1178.3" cy="161.13" r="4" transform="rotate(-45 1178.3 161.13)" fill="#5776F5" fill-opacity="0.07"/>
<circle cx="1206" cy="148" r="4" fill="#5776F5" fill-opacity="0.07"/>
<circle cx="1234.87" cy="158.302" r="4" transform="rotate(45 1234.87 158.302)" fill="#5776F5" fill-opacity="0.07"/>
<circle cx="1251.84" cy="141.332" r="3.5" transform="rotate(45 1251.84 141.332)" stroke="#5776F5" stroke-opacity="0.07"/>
<circle cx="1266.36" cy="161.661" r="3.5" transform="rotate(67.5 1266.36 161.661)" stroke="#5776F5" stroke-opacity="0.07"/>
<circle cx="1272" cy="186" r="3.5" transform="rotate(90 1272 186)" stroke="#5776F5" stroke-opacity="0.07"/>
<circle cx="1267.89" cy="210.644" r="3.5" transform="rotate(112.5 1267.89 210.644)" stroke="#5776F5" stroke-opacity="0.07"/>
<circle cx="1254.67" cy="231.841" r="3.5" transform="rotate(135 1254.67 231.841)" stroke="#5776F5" stroke-opacity="0.07"/>
<circle cx="1234.34" cy="246.363" r="3.5" transform="rotate(157.5 1234.34 246.363)" stroke="#5776F5" stroke-opacity="0.07"/>
<circle cx="1210" cy="252" r="3.5" transform="rotate(180 1210 252)" stroke="#5776F5" stroke-opacity="0.07"/>
<circle cx="1185.36" cy="247.894" r="3.5" transform="rotate(-157.5 1185.36 247.894)" stroke="#5776F5" stroke-opacity="0.07"/>
<circle cx="1164.16" cy="234.669" r="3.5" transform="rotate(-135 1164.16 234.669)" stroke="#5776F5" stroke-opacity="0.07"/>
<circle cx="1149.64" cy="214.34" r="3.5" transform="rotate(-112.5 1149.64 214.34)" stroke="#5776F5" stroke-opacity="0.07"/>
<circle cx="1144" cy="190" r="3.5" transform="rotate(-90 1144 190)" stroke="#5776F5" stroke-opacity="0.07"/>
<circle cx="1148.11" cy="165.356" r="3.5" transform="rotate(-67.5 1148.11 165.356)" stroke="#5776F5" stroke-opacity="0.07"/>
<circle cx="1161.33" cy="144.16" r="3.5" transform="rotate(-45 1161.33 144.16)" stroke="#5776F5" stroke-opacity="0.07"/>
<circle cx="1181.66" cy="129.637" r="3.5" transform="rotate(-22.5 1181.66 129.637)" stroke="#5776F5" stroke-opacity="0.07"/>
<circle cx="1206" cy="124" r="3.5" stroke="#5776F5" stroke-opacity="0.07"/>
<circle cx="1230.64" cy="128.107" r="3.5" transform="rotate(22.5 1230.64 128.107)" stroke="#5776F5" stroke-opacity="0.07"/>
<circle cx="1250.27" cy="110.79" r="4" transform="rotate(30 1250.27 110.79)" fill="#5776F5" fill-opacity="0.07"/>
<circle cx="1268.81" cy="124.36" r="4" transform="rotate(45 1268.81 124.36)" fill="#5776F5" fill-opacity="0.07"/>
<circle cx="1283.21" cy="142.268" r="4" transform="rotate(60 1283.21 142.268)" fill="#5776F5" fill-opacity="0.07"/>
<circle cx="1292.48" cy="163.292" r="4" transform="rotate(75 1292.48 163.292)" fill="#5776F5" fill-opacity="0.07"/>
<circle cx="1296" cy="186" r="4" transform="rotate(90 1296 186)" fill="#5776F5" fill-opacity="0.07"/>
<circle cx="1293.52" cy="208.844" r="4" transform="rotate(105 1293.52 208.844)" fill="#5776F5" fill-opacity="0.07"/>
<circle cx="1285.21" cy="230.268" r="4" transform="rotate(120 1285.21 230.268)" fill="#5776F5" fill-opacity="0.07"/>
<circle cx="1271.64" cy="248.811" r="4" transform="rotate(135 1271.64 248.811)" fill="#5776F5" fill-opacity="0.07"/>
<circle cx="1253.73" cy="263.21" r="4" transform="rotate(150 1253.73 263.21)" fill="#5776F5" fill-opacity="0.07"/>
<circle cx="1232.71" cy="272.484" r="4" transform="rotate(165 1232.71 272.484)" fill="#5776F5" fill-opacity="0.07"/>
<circle cx="1210" cy="276" r="4" transform="rotate(180 1210 276)" fill="#5776F5" fill-opacity="0.07"/>
<circle cx="1187.16" cy="273.519" r="4" transform="rotate(-165 1187.16 273.519)" fill="#5776F5" fill-opacity="0.07"/>
<circle cx="1165.73" cy="265.21" r="4" transform="rotate(-150 1165.73 265.21)" fill="#5776F5" fill-opacity="0.07"/>
<circle cx="1147.19" cy="251.64" r="4" transform="rotate(-135 1147.19 251.64)" fill="#5776F5" fill-opacity="0.07"/>
<circle cx="1132.79" cy="233.732" r="4" transform="rotate(-120 1132.79 233.732)" fill="#5776F5" fill-opacity="0.07"/>
<circle cx="1123.52" cy="212.708" r="4" transform="rotate(-105 1123.52 212.708)" fill="#5776F5" fill-opacity="0.07"/>
<circle cx="1120" cy="190" r="4" transform="rotate(-90 1120 190)" fill="#5776F5" fill-opacity="0.07"/>
<circle cx="1122.48" cy="167.156" r="4" transform="rotate(-75 1122.48 167.156)" fill="#5776F5" fill-opacity="0.07"/>
<circle cx="1130.79" cy="145.732" r="4" transform="rotate(-60 1130.79 145.732)" fill="#5776F5" fill-opacity="0.07"/>
<circle cx="1144.36" cy="127.189" r="4" transform="rotate(-45 1144.36 127.189)" fill="#5776F5" fill-opacity="0.07"/>
<circle cx="1162.27" cy="112.79" r="4" transform="rotate(-30 1162.27 112.79)" fill="#5776F5" fill-opacity="0.07"/>
<circle cx="1183.29" cy="103.516" r="4" transform="rotate(-15 1183.29 103.516)" fill="#5776F5" fill-opacity="0.07"/>
<circle cx="1206" cy="100" r="4" fill="#5776F5" fill-opacity="0.07"/>
<circle cx="1228.84" cy="102.481" r="4" transform="rotate(15 1228.84 102.481)" fill="#5776F5" fill-opacity="0.07"/>
<path d="M1485.24 800.172C1456.18 782.353 1392.19 755.436 1368.77 790.323C1339.48 833.933 1398.35 923.727 1387.16 978.173C1378.89 1018.36 1319.39 1087.58 1205.87 1044.98" stroke="#5776F5" stroke-opacity="0.01" stroke-width="7.78561"/>
<path d="M1485.24 800.172C1456.18 782.353 1392.19 755.436 1368.77 790.323C1339.48 833.933 1398.35 923.727 1387.16 978.173C1378.89 1018.36 1319.39 1087.58 1205.87 1044.98" stroke="#5776F5" stroke-opacity="0.01" stroke-width="7.78561"/>
<path d="M1344.42 686.145C1315.36 668.326 1251.37 641.41 1227.95 676.297C1198.67 719.906 1257.53 809.701 1246.34 864.147C1238.08 904.332 1178.58 973.556 1065.05 930.953" stroke="#5776F5" stroke-opacity="0.01" stroke-width="7.78561"/>
<path d="M1344.42 686.145C1315.36 668.326 1251.37 641.41 1227.95 676.297C1198.67 719.906 1257.53 809.701 1246.34 864.147C1238.08 904.332 1178.58 973.556 1065.05 930.953" stroke="#5776F5" stroke-opacity="0.01" stroke-width="7.78561"/>
<path d="M1344.42 686.145C1315.36 668.326 1251.37 641.41 1227.95 676.297C1198.67 719.906 1257.53 809.701 1246.34 864.147C1238.08 904.332 1178.58 973.556 1065.05 930.953" stroke="#5776F5" stroke-opacity="0.01" stroke-width="7.78561"/>
<path d="M1344.42 686.145C1315.36 668.326 1251.37 641.41 1227.95 676.297C1198.67 719.906 1257.53 809.701 1246.34 864.147C1238.08 904.332 1178.58 973.556 1065.05 930.953" stroke="#5776F5" stroke-opacity="0.01" stroke-width="7.78561"/>
<path d="M1203.61 572.119C1174.54 554.3 1110.56 527.383 1087.13 562.271C1057.85 605.88 1116.72 695.675 1105.52 750.12C1097.26 790.306 1037.76 859.529 924.235 816.927" stroke="#5776F5" stroke-opacity="0.01" stroke-width="7.78561"/>
<path d="M1203.61 572.119C1174.54 554.3 1110.56 527.383 1087.13 562.271C1057.85 605.88 1116.72 695.675 1105.52 750.12C1097.26 790.306 1037.76 859.529 924.235 816.927" stroke="#5776F5" stroke-opacity="0.01" stroke-width="7.78561"/>
<path d="M1115.55 680.87C1086.48 663.051 1022.5 636.134 999.072 671.022C969.79 714.631 1028.66 804.426 1017.46 858.872C1009.2 899.057 949.7 968.28 836.174 925.678" stroke="#5776F5" stroke-opacity="0.01" stroke-width="7.78561"/>
<path d="M1115.55 680.87C1086.48 663.051 1022.5 636.134 999.072 671.022C969.79 714.631 1028.66 804.426 1017.46 858.872C1009.2 899.057 949.7 968.28 836.174 925.678" stroke="#5776F5" stroke-opacity="0.01" stroke-width="7.78561"/>
<path d="M974.731 566.844C945.666 549.025 881.681 522.108 858.256 556.995C828.973 600.605 887.839 690.399 876.646 744.845C868.384 785.03 808.884 854.254 695.358 811.652" stroke="#5776F5" stroke-opacity="0.01" stroke-width="7.78561"/>
<path d="M974.731 566.844C945.666 549.025 881.681 522.108 858.256 556.995C828.973 600.605 887.839 690.399 876.646 744.845C868.384 785.03 808.884 854.254 695.358 811.652" stroke="#5776F5" stroke-opacity="0.01" stroke-width="7.78561"/>
<path d="M974.731 566.844C945.666 549.025 881.681 522.108 858.256 556.995C828.973 600.605 887.839 690.399 876.646 744.845C868.384 785.03 808.884 854.254 695.358 811.652" stroke="#5776F5" stroke-opacity="0.01" stroke-width="7.78561"/>
<path d="M833.915 452.817C804.85 434.998 740.865 408.082 717.439 442.969C688.157 486.578 747.023 576.373 735.829 630.819C727.568 671.004 668.068 740.228 554.542 697.625" stroke="#5776F5" stroke-opacity="0.01" stroke-width="7.78561"/>
<path d="M833.915 452.817C804.85 434.998 740.865 408.082 717.439 442.969C688.157 486.578 747.023 576.373 735.829 630.819C727.568 671.004 668.068 740.228 554.542 697.625" stroke="#5776F5" stroke-opacity="0.01" stroke-width="7.78561"/>
<path d="M833.915 452.817C804.85 434.998 740.865 408.082 717.439 442.969C688.157 486.578 747.023 576.373 735.829 630.819C727.568 671.004 668.068 740.228 554.542 697.625" stroke="#5776F5" stroke-opacity="0.01" stroke-width="7.78561"/>
<path d="M833.915 452.817C804.85 434.998 740.865 408.082 717.439 442.969C688.157 486.578 747.023 576.373 735.829 630.819C727.568 671.004 668.068 740.228 554.542 697.625" stroke="#5776F5" stroke-opacity="0.01" stroke-width="7.78561"/>
<path d="M693.098 338.791C664.034 320.972 600.049 294.055 576.623 328.943C547.341 372.552 606.207 462.346 595.013 516.792C586.751 556.977 527.252 626.201 413.725 583.599" stroke="#5776F5" stroke-opacity="0.01" stroke-width="7.78561"/>
<path d="M781.16 230.04C752.096 212.22 688.11 185.304 664.685 220.191C635.403 263.801 694.268 353.595 683.075 408.041C674.813 448.226 615.314 517.45 501.787 474.847" stroke="#5776F5" stroke-opacity="0.01" stroke-width="7.78561"/>
<path d="M781.16 230.04C752.096 212.22 688.11 185.304 664.685 220.191C635.403 263.801 694.268 353.595 683.075 408.041C674.813 448.226 615.314 517.45 501.787 474.847" stroke="#5776F5" stroke-opacity="0.01" stroke-width="7.78561"/>
<path d="M640.344 116.013C611.279 98.194 547.294 71.2776 523.868 106.165C494.586 149.774 553.452 239.569 542.258 294.015C533.997 334.2 474.497 403.424 360.971 360.821" stroke="#5776F5" stroke-opacity="0.01" stroke-width="7.78561"/>
<path d="M640.344 116.013C611.279 98.194 547.294 71.2776 523.868 106.165C494.586 149.774 553.452 239.569 542.258 294.015C533.997 334.2 474.497 403.424 360.971 360.821" stroke="#5776F5" stroke-opacity="0.01" stroke-width="7.78561"/>
<path d="M640.344 116.013C611.279 98.194 547.294 71.2776 523.868 106.165C494.586 149.774 553.452 239.569 542.258 294.015C533.997 334.2 474.497 403.424 360.971 360.821" stroke="#5776F5" stroke-opacity="0.01" stroke-width="7.78561"/>
<path d="M499.528 1.98672C470.463 -15.8324 406.478 -42.7489 383.052 -7.86152C353.77 35.7476 412.636 125.542 401.442 179.988C393.181 220.173 333.681 289.397 220.154 246.795" stroke="#5776F5" stroke-opacity="0.01" stroke-width="7.78561"/>
<path d="M499.528 1.98672C470.463 -15.8324 406.478 -42.7489 383.052 -7.86152C353.77 35.7476 412.636 125.542 401.442 179.988C393.181 220.173 333.681 289.397 220.154 246.795" stroke="#5776F5" stroke-opacity="0.01" stroke-width="7.78561"/>
<path d="M499.528 1.98672C470.463 -15.8324 406.478 -42.7489 383.052 -7.86152C353.77 35.7476 412.636 125.542 401.442 179.988C393.181 220.173 333.681 289.397 220.154 246.795" stroke="#5776F5" stroke-opacity="0.01" stroke-width="7.78561"/>
<path d="M499.528 1.98672C470.463 -15.8324 406.478 -42.7489 383.052 -7.86152C353.77 35.7476 412.636 125.542 401.442 179.988C393.181 220.173 333.681 289.397 220.154 246.795" stroke="#5776F5" stroke-opacity="0.01" stroke-width="7.78561"/>
<path d="M358.711 -112.04C329.647 -129.859 265.662 -156.775 242.236 -121.888C212.954 -78.2788 271.819 11.516 260.626 65.9618C252.364 106.147 192.865 175.371 79.3381 132.768" stroke="#5776F5" stroke-opacity="0.01" stroke-width="7.78561"/>
<path d="M270.65 -3.28861C241.585 -21.1077 177.6 -48.0242 154.174 -13.1369C124.892 30.4723 183.758 120.267 172.564 174.713C164.303 214.898 104.803 284.122 -8.72349 241.519" stroke="#5776F5" stroke-opacity="0.01" stroke-width="7.78561"/>
</svg>
